<svg id="Capa_1" data-name="Capa 1" xmlns="http://www.w3.org/2000/svg" viewBox="0 0 124 124"><defs><style>.cls-1{fill:#fff;}</style></defs><title>Icons</title><path class="cls-1" d="M81.63,36.21H53.1a4.39,4.39,0,0,0-4.38,4.38V59.93a4.39,4.39,0,0,0,4.38,4.38h4.15l.35.37c1.95,2.08,4,4.46,5.17,5.79l5.54-6.16H81.63A4.38,4.38,0,0,0,86,59.93V40.59A4.38,4.38,0,0,0,81.63,36.21Z"/><path class="cls-1" d="M71.72,28H43.19a4.39,4.39,0,0,0-4.38,4.38V51.72a4.39,4.39,0,0,0,4.38,4.38h3.17V40.59a6.74,6.74,0,0,1,6.74-6.74h23V32.38A4.39,4.39,0,0,0,71.72,28Z"/><path class="cls-1" d="M42,75.22a5.54,5.54,0,1,0,5.54-5.54A5.53,5.53,0,0,0,42,75.22Z"/><path class="cls-1" d="M80.51,79a5.51,5.51,0,1,0-4,1.74A5.53,5.53,0,0,0,80.51,79Z"/><path class="cls-1" d="M37.57,96H57.45V91.6a7.37,7.37,0,0,0-7.36-7.37H44.94a7.37,7.37,0,0,0-7.37,7.37Z"/><path class="cls-1" d="M79.06,84.23H73.91a7.37,7.37,0,0,0-7.36,7.37V96H86.43V91.6A7.37,7.37,0,0,0,79.06,84.23Z"/></svg>