<svg id="Capa_1" data-name="Capa 1" xmlns="http://www.w3.org/2000/svg" viewBox="0 0 124 124"><defs><style>.cls-1{fill:#fff;}</style></defs><title>Icons</title><path class="cls-1" d="M68.24,81H67a.62.62,0,0,0-.5.22A6.55,6.55,0,0,1,62,83a6.48,6.48,0,0,1-4.49-1.78A.62.62,0,0,0,57,81H55.69a2.18,2.18,0,0,0-2.14,2.43l-.86,8.27a2.71,2.71,0,0,0,1.79,2.35,28.33,28.33,0,0,0,7.48,1,28.86,28.86,0,0,0,7.49-1,2.68,2.68,0,0,0,1.78-2.35l-.85-8.27A2.08,2.08,0,0,0,68.24,81Z"/><circle class="cls-1" cx="62.04" cy="76.37" r="4.99"/><path class="cls-1" d="M43.78,53.19a2.68,2.68,0,0,0,1.78-2.35l-.85-8.27a2.19,2.19,0,0,0-2.14-2.43H41.29a.65.65,0,0,0-.5.22,6.55,6.55,0,0,1-4.5,1.78,6.48,6.48,0,0,1-4.49-1.78.65.65,0,0,0-.5-.22H30a2.19,2.19,0,0,0-2.14,2.43L27,50.84a2.71,2.71,0,0,0,1.79,2.35,27.92,27.92,0,0,0,7.48,1A35,35,0,0,0,43.78,53.19Z"/><circle class="cls-1" cx="36.37" cy="35.58" r="4.99"/><path class="cls-1" d="M96.12,42.57A2.19,2.19,0,0,0,94,40.14H92.7a.65.65,0,0,0-.5.22,6.57,6.57,0,0,1-9,0,.65.65,0,0,0-.5-.22H81.43a2.19,2.19,0,0,0-2.14,2.43l-.85,8.27a2.68,2.68,0,0,0,1.78,2.35,28,28,0,0,0,7.49,1,28.31,28.31,0,0,0,7.48-1A2.71,2.71,0,0,0,97,50.84Z"/><circle class="cls-1" cx="87.71" cy="35.58" r="4.99"/><path class="cls-1" d="M73,31.09a29.26,29.26,0,0,0-22,0,1.81,1.81,0,1,0,1.36,3.35,26,26,0,0,1,19.25,0A1.81,1.81,0,0,0,73,31.09Z"/><path class="cls-1" d="M89.56,60.32h-.29a1.73,1.73,0,0,0-1.78,1.57,24.42,24.42,0,0,1-3.21,9.27,26.8,26.8,0,0,1-6.41,7.42,1.82,1.82,0,1,0,2.28,2.85,29.52,29.52,0,0,0,11-19A1.85,1.85,0,0,0,89.56,60.32Z"/><path class="cls-1" d="M46.21,78.58a24.71,24.71,0,0,1-6.42-7.42,26.57,26.57,0,0,1-3.21-9.27,1.84,1.84,0,0,0-1.78-1.57h-.29a1.85,1.85,0,0,0-1.57,2.07,29.07,29.07,0,0,0,11,19,1.83,1.83,0,1,0,2.29-2.85Z"/></svg>