<svg id="Capa_1" data-name="Capa 1" xmlns="http://www.w3.org/2000/svg" viewBox="0 0 124 124"><defs><style>.cls-1{fill:#fff;}</style></defs><title>Icons</title><path class="cls-1" d="M95.94,80,66.41,94.77a8,8,0,0,1-3.52.7c-2,0-20.75-5.68-24.31-6.7L25.24,97.54l-.07-19.05L39.4,70.58l.07,0A10.08,10.08,0,0,1,46,70.07c.67.16,1.12.3,1.12.3L67.9,77.09c1.89.61,3.6,1.56,4,3.73A4.65,4.65,0,0,1,70.66,85a4.71,4.71,0,0,1-4.6,1.09L51,81.33l-.57,2.08L65.5,88.18a7,7,0,0,0,5.18-.43c3-1.53,4-4.55,3.2-7.73l4.76-2.4c2.91-1.47,5.88-2.85,8.74-4.41,2.17-1.1,4.63-2.92,7.19-2.5a5.12,5.12,0,0,1,3.71,2.55,4.92,4.92,0,0,1-2.11,6.62ZM52.36,33.17A4.55,4.55,0,0,0,51.48,31l1.92-1.91-.95-.94-1.92,1.92a4.44,4.44,0,0,0-2.15-.85V26.46H47.05v2.79a4.64,4.64,0,0,0-2.06.92l-2-2-.94.94,2,2.05a4.56,4.56,0,0,0-.78,2h-3V34.5h3a4.34,4.34,0,0,0,.82,2L42,38.58l.94.94,2.12-2.12a4.5,4.5,0,0,0,2,.86v3h1.33V38.28a4.4,4.4,0,0,0,2.06-.78l2,2,.95-.94-2-2a4.61,4.61,0,0,0,.93-2.09h2.74V33.17ZM47.83,37a3.25,3.25,0,1,1,3.24-3.25A3.25,3.25,0,0,1,47.83,37ZM92,52.45H78.65l-.07-8.61L69.44,34.7V32h5.87V27.81H68.68V32h0v2.7l-9.23,9.1,0,8.65H46s0,14.33,0,15.49c.72.16,1.5.39,1.58.42l15.56,5,5.27,1.7a8.4,8.4,0,0,1,4.5,3l.62-.33,1.64-.82,2.39-1.21,2.94-1.46c1.9-.93,3.86-1.9,5.73-2.92h0l0,0c.39-.19.8-.42,1.24-.67A16.76,16.76,0,0,1,92,68.72ZM54.41,66.77h-4v-4h4Zm0-7.4h-4v-4h4Zm7.35,7.4h-4v-4h4Zm0-7.4h-4v-4h4ZM69.06,42a3,3,0,1,1-3,3,3,3,0,0,1,3-3ZM65.48,70.29V60.75A3.54,3.54,0,0,1,69,58.21a3.5,3.5,0,0,1,3.58,2.72c.06,2.4.13,6.93.2,9.34l-7.34,0Zm15.13-3.52h-4v-4h4Zm0-7.4h-4v-4h4Zm7.16,7.4h-4v-4h4Zm0-7.4h-4v-4h4Z"/></svg>